HIERARCHY
ROOT Hips
{
    OFFSET   0.000000   0.000000   0.000000
    CHANNELS 6 Xposition Yposition Zposition Zrotation Xrotation Yrotation
    JOINT Chest
    {
        OFFSET   0.000000   8.007240   0.000000
        CHANNELS 3 Zrotation Xrotation Yrotation
        JOINT Chest2
        {
            OFFSET   0.000000  22.077100   0.000000
            CHANNELS 3 Zrotation Xrotation Yrotation
            JOINT Neck
            {
                OFFSET   0.000000  23.254800   0.000000
                CHANNELS 3 Zrotation Xrotation Yrotation
                JOINT Head
                {
                    OFFSET   0.000000  14.370000   1.956600
                    CHANNELS 3 Zrotation Xrotation Yrotation
                    End Site
                    {
                        OFFSET   0.000000  19.566000   0.000000
                    }
                }
            }
            JOINT LeftCollar
            {
                OFFSET   3.911900  19.017000  -0.467064
                CHANNELS 3 Zrotation Xrotation Yrotation
                JOINT LeftShoulder
                {
                    OFFSET  10.383700   0.000000   0.000000
                    CHANNELS 3 Zrotation Xrotation Yrotation
                    JOINT LeftElbow
                    {
                        OFFSET  26.662100   0.001476   0.000517
                        CHANNELS 3 Zrotation Xrotation Yrotation
                        JOINT LeftWrist
                        {
                            OFFSET  28.869000  -0.000025  -0.000106
                            CHANNELS 3 Zrotation Xrotation Yrotation
                            JOINT LeftFinger0
                            {
                                OFFSET   2.044660  -2.323460   3.252850
                                CHANNELS 3 Zrotation Xrotation Yrotation
                                JOINT LeftFinger01
                                {
                                    OFFSET   3.088130   0.000000   0.000000
                                    CHANNELS 3 Zrotation Xrotation Yrotation
                                    JOINT LeftFinger02
                                    {
                                        OFFSET   2.639460   0.000000   0.000000
                                        CHANNELS 3 Zrotation Xrotation Yrotation
                                        End Site
                                        {
                                            OFFSET   2.582190   0.000000   0.000000
                                        }
                                    }
                                }
                            }
                            JOINT LeftFinger1
                            {
                                OFFSET   8.364480   0.000000   3.252850
                                CHANNELS 3 Zrotation Xrotation Yrotation
                                JOINT LeftFinger11
                                {
                                    OFFSET   4.646930   0.000000   0.000000
                                    CHANNELS 3 Zrotation Xrotation Yrotation
                                    JOINT LeftFinger12
                                    {
                                        OFFSET   2.323460   0.000000   0.000000
                                        CHANNELS 3 Zrotation Xrotation Yrotation
                                        End Site
                                        {
                                            OFFSET   2.273050   0.000000   0.000000
                                        }
                                    }
                                }
                            }
                            JOINT LeftFinger2
                            {
                                OFFSET   8.364490   0.000015   1.078090
                                CHANNELS 3 Zrotation Xrotation Yrotation
                                JOINT LeftFinger21
                                {
                                    OFFSET   5.111620   0.000000   0.000000
                                    CHANNELS 3 Zrotation Xrotation Yrotation
                                    JOINT LeftFinger22
                                    {
                                        OFFSET   2.788160   0.000016   0.000000
                                        CHANNELS 3 Zrotation Xrotation Yrotation
                                        End Site
                                        {
                                            OFFSET   2.727660   0.000000   0.000000
                                        }
                                    }
                                }
                            }
                            JOINT LeftFinger3
                            {
                                OFFSET   7.899780   0.000017  -1.078090
                                CHANNELS 3 Zrotation Xrotation Yrotation
                                JOINT LeftFinger31
                                {
                                    OFFSET   4.646930   0.000000   0.000000
                                    CHANNELS 3 Zrotation Xrotation Yrotation
                                    JOINT LeftFinger32
                                    {
                                        OFFSET   2.323470   0.000000   0.000000
                                        CHANNELS 3 Zrotation Xrotation Yrotation
                                        End Site
                                        {
                                            OFFSET   2.273050   0.000000   0.000000
                                        }
                                    }
                                }
                            }
                            JOINT LeftFinger4
                            {
                                OFFSET   7.435090   0.000000  -3.252850
                                CHANNELS 3 Zrotation Xrotation Yrotation
                                JOINT LeftFinger41
                                {
                                    OFFSET   3.717550   0.000000   0.000000
                                    CHANNELS 3 Zrotation Xrotation Yrotation
                                    JOINT LeftFinger42
                                    {
                                        OFFSET   1.858770   0.000000   0.000000
                                        CHANNELS 3 Zrotation Xrotation Yrotation
                                        End Site
                                        {
                                            OFFSET   1.818440   0.000000   0.000000
                                        }
                                    }
                                }
                            }
                        }
                    }
                }
            }
            JOINT RightCollar
            {
                OFFSET  -3.911900  19.017000  -0.467063
                CHANNELS 3 Zrotation Xrotation Yrotation
                JOINT RightShoulder
                {
                    OFFSET -10.383700   0.000019   0.000000
                    CHANNELS 3 Zrotation Xrotation Yrotation
                    JOINT RightElbow
                    {
                        OFFSET -26.662100   0.001175   0.000102
                        CHANNELS 3 Zrotation Xrotation Yrotation
                        JOINT RightWrist
                        {
                            OFFSET -28.869000   0.000016  -0.000079
                            CHANNELS 3 Zrotation Xrotation Yrotation
                            JOINT RightFinger0
                            {
                                OFFSET  -2.044660  -2.323490   3.252850
                                CHANNELS 3 Zrotation Xrotation Yrotation
                                JOINT RightFinger01
                                {
                                    OFFSET  -3.088140   0.000000   0.000000
                                    CHANNELS 3 Zrotation Xrotation Yrotation
                                    JOINT RightFinger02
                                    {
                                        OFFSET  -2.639460   0.000000   0.000000
                                        CHANNELS 3 Zrotation Xrotation Yrotation
                                        End Site
                                        {
                                            OFFSET  -2.582190   0.000000   0.000000
                                        }
                                    }
                                }
                            }
                            JOINT RightFinger1
                            {
                                OFFSET  -8.364480   0.000000   3.252850
                                CHANNELS 3 Zrotation Xrotation Yrotation
                                JOINT RightFinger11
                                {
                                    OFFSET  -4.646930   0.000000   0.000000
                                    CHANNELS 3 Zrotation Xrotation Yrotation
                                    JOINT RightFinger12
                                    {
                                        OFFSET  -2.323470   0.000000   0.000000
                                        CHANNELS 3 Zrotation Xrotation Yrotation
                                        End Site
                                        {
                                            OFFSET  -2.273050   0.000000   0.000000
                                        }
                                    }
                                }
                            }
                            JOINT RightFinger2
                            {
                                OFFSET  -8.364480   0.000000   1.078090
                                CHANNELS 3 Zrotation Xrotation Yrotation
                                JOINT RightFinger21
                                {
                                    OFFSET  -5.111620   0.000000   0.000000
                                    CHANNELS 3 Zrotation Xrotation Yrotation
                                    JOINT RightFinger22
                                    {
                                        OFFSET  -2.788160   0.000000   0.000000
                                        CHANNELS 3 Zrotation Xrotation Yrotation
                                        End Site
                                        {
                                            OFFSET  -2.727660   0.000000   0.000000
                                        }
                                    }
                                }
                            }
                            JOINT RightFinger3
                            {
                                OFFSET  -7.899780   0.000000  -1.078090
                                CHANNELS 3 Zrotation Xrotation Yrotation
                                JOINT RightFinger31
                                {
                                    OFFSET  -4.646930   0.000000   0.000000
                                    CHANNELS 3 Zrotation Xrotation Yrotation
                                    JOINT RightFinger32
                                    {
                                        OFFSET  -2.323470   0.000000   0.000000
                                        CHANNELS 3 Zrotation Xrotation Yrotation
                                        End Site
                                        {
                                            OFFSET  -2.273050   0.000000   0.000000
                                        }
                                    }
                                }
                            }
                            JOINT RightFinger4
                            {
                                OFFSET  -7.435090   0.000000  -3.252850
                                CHANNELS 3 Zrotation Xrotation Yrotation
                                JOINT RightFinger41
                                {
                                    OFFSET  -3.717550   0.000000   0.000000
                                    CHANNELS 3 Zrotation Xrotation Yrotation
                                    JOINT RightFinger42
                                    {
                                        OFFSET  -1.858770   0.000000   0.000000
                                        CHANNELS 3 Zrotation Xrotation Yrotation
                                        End Site
                                        {
                                            OFFSET  -1.818440   0.000000   0.000000
                                        }
                                    }
                                }
                            }
                        }
                    }
                }
            }
        }
    }
    JOINT LeftHip
    {
        OFFSET   9.783040   0.000000   0.000000
        CHANNELS 3 Zrotation Xrotation Yrotation
        JOINT LeftKnee
        {
            OFFSET   0.000032 -41.789100  -0.002222
            CHANNELS 3 Zrotation Xrotation Yrotation
            JOINT LeftAnkle
            {
                OFFSET   0.000087 -41.133200  -0.000135
                CHANNELS 3 Zrotation Xrotation Yrotation
                JOINT LeftToe
                {
                    OFFSET   0.000000  -6.358960  14.674500
                    CHANNELS 3 Zrotation Xrotation Yrotation
                    End Site
                    {
                        OFFSET   0.000000   0.000000   3.913200
                    }
                }
            }
        }
    }
    JOINT RightHip
    {
        OFFSET  -9.783040   0.000000   0.000000
        CHANNELS 3 Zrotation Xrotation Yrotation
        JOINT RightKnee
        {
            OFFSET   0.000047 -41.789100  -0.000896
            CHANNELS 3 Zrotation Xrotation Yrotation
            JOINT RightAnkle
            {
                OFFSET  -0.000117 -41.133300  -0.000248
                CHANNELS 3 Zrotation Xrotation Yrotation
                JOINT RightToe
                {
                    OFFSET   0.000000  -6.358970  14.674500
                    CHANNELS 3 Zrotation Xrotation Yrotation
                    End Site
                    {
                        OFFSET   0.000000   0.000000   3.913200
                    }
                }
            }
        }
    }
}
MOTION
Frames: 4
Frame Time:   0.016667
  2.594420  89.409900  -0.136896  -0.155693 -12.001000   6.496370   0.855240   7.921830   0.648173   1.642890  15.852200   1.192930   0.037111  -1.074170  -0.000598   0.061111  -2.178530   2.498320  -7.760900  -1.187210  10.817500 -76.926300  11.999000  -2.215510   0.539281   4.346240 -15.916200   8.251800  -4.453250  -0.057918  38.024000  30.411300 -49.851300 -33.293700  -0.002131   0.000795 -11.646900  -0.005140   0.001079 -30.622900   0.372365  -0.628928 -25.056800  -0.002814  -0.006746 -17.542400   0.000371  -0.007347 -28.486000  -3.911670   7.166240 -39.677600   0.001164  -0.004931 -26.425300   0.002544  -0.001777 -26.851000  -3.705340   7.274660 -27.352000   0.003105   0.001939 -18.216400   0.004112  -0.003968 -25.914100  -4.521360   9.215240 -39.418100   0.004142  -0.001298 -26.252400  -0.001440   0.004066   4.890000   2.300960  13.545600  54.580700  -7.327930  45.317200 -20.166100 -13.214800  88.753300 -69.581000  42.400700  45.846900 -38.939800  53.034300  82.644000  58.408200  -0.002285   0.004074  32.239800  -0.002369  -0.006832  -3.685580  -1.392430  20.687800   0.000000   0.001836  -0.001620  -0.000222   0.001188  -0.001345  -3.363330  -0.265640   4.555000  -0.000000   0.000866   0.000062  -0.000000   0.000449   0.000504   3.392930  -0.878873 -14.506600   3.504820   0.003353  -0.002578   2.334210  -0.003159  -0.004897  69.247500 -13.626100  -5.101080 104.786000  -0.002602   0.000616  69.787400  -0.000736   0.001548   1.488940  13.827200   0.591367  -1.291950  -0.004261   9.948530  -1.242190  -2.058830  -0.957218   0.000000   0.000000   0.000000   0.122486  10.707700  -4.219700  -2.088470   8.282100 -13.948000   1.969840  -5.752720  -2.541360   0.000000   0.000000   0.000000
  2.593520  89.410400  -0.107297  -0.147193 -11.963900   6.559440   0.843895   7.885260   0.650397   1.619770  15.779000   1.199480   0.034639  -1.055840  -0.000483   0.058374  -2.141280   2.465270  -7.768330  -1.181820  10.801000 -76.909100  12.029000  -2.290600   0.516238   4.345560 -16.066400   8.236540  -4.516260  -0.108771  38.060200  30.430000 -49.824900 -33.257300  -0.002088   0.000774 -11.628700  -0.005163   0.001213 -30.622400   0.373048  -0.630082 -25.056300  -0.002882  -0.006677 -17.541300   0.000356  -0.007342 -28.487600  -3.908730   7.159770 -39.746100   0.001138  -0.004902 -26.470900   0.002518  -0.001755 -26.859100  -3.703280   7.267780 -27.386300   0.003071   0.001941 -18.239300   0.004081  -0.003899 -25.956100  -4.537920   9.228870 -39.484000   0.004142  -0.001274 -26.296300  -0.001456   0.004157   4.906030   2.310560  13.526200  54.624000  -7.289900  45.258800 -20.266400 -13.207200  88.758600 -69.506300  42.454400  45.814200 -38.914400  52.920000  82.604200  58.211400  -0.002356   0.004167  32.108800  -0.002403  -0.007058  -3.578580  -1.359030  20.761500   0.000000   0.001933  -0.001759  -0.000200   0.001271  -0.001414  -3.305150  -0.267187   4.661710   0.000000   0.000896  -0.000052  -0.000000   0.000500   0.000400   3.497560  -0.905092 -14.490600   3.612650   0.003422  -0.002780   2.406030  -0.003104  -0.004967  69.270100 -13.614500  -5.090780 104.817000  -0.002624   0.000593  69.808300  -0.000779   0.001534   1.492100  13.795100   0.622135  -1.292230   0.025260   9.888740  -1.246050  -2.088030  -0.987019   0.000000   0.000000  -0.000000   0.118434  10.689800  -4.207080  -2.078900   8.297650 -13.981700   1.960350  -5.782820  -2.586490   0.000000   0.000000  -0.000000
  2.590400  89.411000  -0.079222  -0.144052 -11.925500   6.595930   0.830464   7.848140   0.654283   1.592190  15.704600   1.209690   0.034288  -1.036610  -0.000364   0.056445  -2.102130   2.435050  -7.775170  -1.170370  10.779900 -76.887100  12.063900  -2.377110   0.496658   4.343490 -16.217900   8.212380  -4.623690  -0.153858  38.093900  30.468700 -49.819300 -33.216500  -0.002047   0.000754 -11.608200  -0.005185   0.001346 -30.618600   0.377833  -0.638163 -25.053200  -0.002952  -0.006609 -17.537200   0.000343  -0.007338 -28.489300  -3.905920   7.154040 -39.806700   0.001112  -0.004875 -26.511200   0.002493  -0.001734 -26.865400  -3.701000   7.261760 -27.408400   0.003037   0.001941 -18.254000   0.004050  -0.003830 -25.991900  -4.547730   9.236800 -39.539200   0.004141  -0.001253 -26.333100  -0.001469   0.004248   4.918940   2.319290  13.506100  54.642500  -7.236640  45.212900 -20.280700 -13.206200  88.759300 -69.453100  42.519000  45.780700 -38.847700  52.718100  82.508400  58.021000  -0.002429   0.004189  31.982000  -0.002433  -0.007280  -3.514390  -1.338130  20.815900   0.000000   0.002036  -0.001902  -0.000170   0.001358  -0.001482  -3.247220  -0.268753   4.713440   0.000000   0.000935  -0.000173  -0.000000   0.000556   0.000293   3.568760  -0.922909 -14.479700   3.686020   0.003483  -0.002990   2.454890  -0.003053  -0.005041  69.289000 -13.606900  -5.082960 104.844000  -0.002637   0.000566  69.825900  -0.000819   0.001523   1.492550  13.747100   0.643781  -1.288360   0.066145   9.837670  -1.250990  -2.127580  -0.998606  -0.000000   0.000000  -0.000000   0.114071  10.667700  -4.194410  -2.071490   8.313200 -13.996800   1.953440  -5.811430  -2.625620  -0.000000   0.000000  -0.000000
  2.585070  89.411600  -0.053832  -0.147786 -11.879300   6.603910   0.816956   7.807700   0.661696   1.563990  15.623700   1.227080   0.039808  -1.013070  -0.000215   0.065140  -2.054430   2.406560  -7.780820  -1.141600  10.745000 -76.852600  12.084700  -2.468390   0.470157   4.341210 -16.403500   8.184840  -4.718790  -0.178147  38.167300  30.581000 -49.868900 -33.170500  -0.002003   0.000737 -11.585200  -0.005215   0.001480 -30.608500   0.390968  -0.660543 -25.045100  -0.003022  -0.006542 -17.531000   0.000330  -0.007335 -28.491200  -3.904170   7.150580 -39.843200   0.001084  -0.004849 -26.535500   0.002467  -0.001715 -26.867600  -3.699060   7.258300 -27.411100   0.003001   0.001938 -18.255800   0.004021  -0.003761 -26.006700  -4.542620   9.221560 -39.559800   0.004137  -0.001234 -26.346800  -0.001480   0.004338   4.929280   2.331440  13.479400  54.637500  -7.171930  45.182700 -20.327400 -13.200800  88.701000 -69.418700  42.552100  45.729700 -38.707600  52.481300  82.323800  57.872000  -0.002512   0.004199  31.882800  -0.002458  -0.007495  -3.610530  -1.379320  20.881900   0.000000   0.002132  -0.002048  -0.000141   0.001435  -0.001561  -3.438380  -0.289154   4.784380   0.000000   0.000987  -0.000292  -0.000000   0.000617   0.000183   3.603360  -0.931484 -14.474400   3.721670   0.003529  -0.003222   2.478640  -0.003006  -0.005123  69.323300 -13.605000  -5.073270 104.893000  -0.002640   0.000538  69.858900  -0.000867   0.001518   1.486680  13.700100   0.646753  -1.274160   0.082046   9.810240  -1.254170  -2.154940  -0.990878  -0.000000   0.000000  -0.000000   0.116733  10.636900  -4.194300  -2.069690   8.320990 -13.990400   1.945340  -5.834260  -2.652910  -0.000000   0.000000   0.000000
